<svg xmlns="http://www.w3.org/2000/svg" xmlns:xlink="http://www.w3.org/1999/xlink" width="500" zoomAndPan="magnify" viewBox="0 0 375 374.999991" height="500" preserveAspectRatio="xMidYMid meet" version="1.0"><defs><g/><clipPath id="f5f86a0668"><path d="M 66.917969 153.410156 L 138.167969 153.410156 L 138.167969 229.910156 L 66.917969 229.910156 Z M 66.917969 153.410156 " clip-rule="nonzero"/></clipPath></defs><g clip-path="url(#f5f86a0668)"><path fill="#ffffff" d="M 102.550781 153.449219 C 112.382812 153.449219 121.292969 157.421875 127.753906 163.800781 C 134.1875 170.242188 138.167969 179.089844 138.167969 188.867188 C 138.167969 198.644531 134.171875 207.507812 127.753906 213.933594 C 121.277344 220.328125 112.382812 224.289062 102.550781 224.289062 C 100.191406 224.289062 97.878906 224.074219 95.660156 223.617188 C 93.777344 223.28125 91.96875 222.734375 90.164062 222.109375 L 78.265625 229.207031 C 77.132812 229.875 75.660156 229.542969 74.988281 228.414062 C 74.652344 227.867188 74.574219 227.289062 74.695312 226.738281 L 76.625 213.15625 C 73.6875 210.066406 71.296875 206.472656 69.660156 202.464844 C 67.882812 198.324219 66.917969 193.679688 66.917969 188.882812 C 66.917969 179.105469 70.914062 170.242188 77.332031 163.800781 C 83.808594 157.421875 92.71875 153.449219 102.550781 153.449219 Z M 121.371094 170.03125 C 122.289062 170.988281 122.289062 172.496094 121.371094 173.410156 C 120.449219 174.324219 118.933594 174.324219 117.96875 173.410156 C 115.917969 171.371094 113.515625 169.773438 110.910156 168.691406 C 108.308594 167.640625 105.445312 167.0625 102.550781 167.0625 C 96.503906 167.0625 91.035156 169.484375 87.085938 173.410156 C 83.132812 177.339844 80.699219 182.777344 80.699219 188.792969 C 80.699219 194.761719 83.132812 200.199219 87.085938 204.125 C 91.035156 208.054688 96.503906 210.476562 102.550781 210.476562 C 108.554688 210.476562 114.019531 208.054688 117.96875 204.125 C 121.414062 200.746094 123.683594 196.191406 124.234375 191.167969 L 115.289062 191.167969 L 109.148438 202.023438 C 108.523438 203.195312 107.050781 203.609375 105.875 202.9375 C 105.246094 202.601562 104.863281 202.023438 104.695312 201.386719 L 101.203125 185.378906 L 99.640625 189.554688 C 99.304688 190.511719 98.386719 191.136719 97.421875 191.136719 L 87.636719 191.136719 C 86.289062 191.136719 85.203125 190.054688 85.203125 188.761719 C 85.203125 187.421875 86.289062 186.339844 87.636719 186.339844 L 95.75 186.339844 L 99.488281 176.136719 C 99.734375 175.34375 100.40625 174.722656 101.296875 174.554688 C 102.550781 174.265625 103.851562 175.101562 104.113281 176.351562 L 108.0625 194.199219 L 111.675781 187.757812 C 112.058594 186.917969 112.902344 186.339844 113.867188 186.339844 L 126.789062 186.339844 C 128.09375 186.339844 129.179688 187.421875 129.179688 188.761719 C 129.179688 196.070312 126.195312 202.679688 121.371094 207.476562 C 116.546875 212.273438 109.902344 215.242188 102.550781 215.242188 C 95.199219 215.242188 88.523438 212.273438 83.730469 207.476562 C 78.890625 202.664062 75.921875 196.070312 75.921875 188.761719 C 75.921875 181.453125 78.90625 174.8125 83.730469 170 C 88.523438 165.234375 95.199219 162.265625 102.550781 162.265625 C 106.074219 162.265625 109.519531 162.933594 112.71875 164.273438 C 115.949219 165.644531 118.890625 167.5625 121.371094 170.03125 Z M 124.355469 167.199219 C 118.765625 161.640625 111.078125 158.214844 102.550781 158.214844 C 94.019531 158.214844 86.335938 161.640625 80.746094 167.199219 C 75.15625 172.757812 71.710938 180.402344 71.710938 188.882812 C 71.710938 193.054688 72.554688 197.074219 74.070312 200.667969 C 75.628906 204.429688 77.929688 207.8125 80.792969 210.613281 C 81.34375 211.117188 81.679688 211.90625 81.542969 212.699219 L 80.117188 222.566406 L 88.691406 217.421875 L 88.738281 217.421875 C 89.320312 217.039062 90.132812 216.964844 90.882812 217.296875 C 92.6875 218.015625 94.574219 218.59375 96.59375 218.972656 C 98.523438 219.355469 100.5 219.550781 102.566406 219.550781 C 111.09375 219.550781 118.78125 216.125 124.371094 210.566406 C 129.960938 205.007812 133.40625 197.363281 133.40625 188.882812 C 133.40625 180.402344 129.945312 172.757812 124.355469 167.199219 Z M 124.355469 167.199219 " fill-opacity="1" fill-rule="nonzero"/></g><g fill="#ffffff" fill-opacity="1"><g transform="translate(143.261743, 188.999988)"><g><path d="M 14.195312 -5.335938 C 15.246094 -5.335938 16.085938 -5.753906 16.714844 -6.679688 L 21.589844 -14.320312 L 21.589844 -2.140625 C 21.589844 -1.554688 21.796875 -1.050781 22.21875 -0.628906 C 22.636719 -0.210938 23.140625 0 23.730469 0 C 24.316406 0 24.820312 -0.210938 25.242188 -0.628906 C 25.660156 -1.050781 25.871094 -1.554688 25.871094 -2.140625 L 25.871094 -22.933594 C 25.871094 -23.4375 25.660156 -23.855469 25.324219 -24.234375 C 24.949219 -24.570312 24.527344 -24.78125 24.023438 -24.78125 C 23.351562 -24.78125 22.847656 -24.484375 22.46875 -23.980469 L 14.195312 -10.625 L 5.921875 -23.980469 C 5.503906 -24.484375 4.996094 -24.78125 4.367188 -24.78125 C 3.863281 -24.78125 3.402344 -24.570312 3.066406 -24.234375 C 2.6875 -23.855469 2.519531 -23.4375 2.519531 -22.933594 L 2.519531 -2.140625 C 2.519531 -1.554688 2.730469 -1.050781 3.148438 -0.628906 C 3.570312 -0.210938 4.074219 0 4.660156 0 C 5.25 0 5.753906 -0.210938 6.175781 -0.628906 C 6.59375 -1.050781 6.804688 -1.554688 6.804688 -2.140625 L 6.804688 -14.320312 L 11.675781 -6.679688 C 12.265625 -5.753906 13.105469 -5.335938 14.195312 -5.335938 Z M 14.195312 -5.335938 "/></g></g></g><g fill="#ffffff" fill-opacity="1"><g transform="translate(174.257743, 188.999988)"><g><path d="M 2.519531 -22.765625 L 2.519531 -2.015625 C 2.519531 -1.429688 2.6875 -0.964844 3.109375 -0.589844 C 3.484375 -0.167969 3.949219 0 4.535156 0 L 17.179688 0 C 17.683594 0 18.144531 -0.167969 18.5625 -0.589844 C 18.984375 -0.964844 19.195312 -1.429688 19.195312 -2.015625 C 19.195312 -2.5625 18.984375 -3.023438 18.5625 -3.445312 C 18.144531 -3.820312 17.683594 -4.03125 17.179688 -4.03125 L 6.804688 -4.03125 L 6.804688 -9.910156 L 14.910156 -9.910156 C 15.414062 -9.910156 15.875 -10.078125 16.296875 -10.5 C 16.714844 -10.878906 16.925781 -11.339844 16.925781 -11.929688 C 16.925781 -12.472656 16.714844 -12.9375 16.296875 -13.355469 C 15.875 -13.734375 15.414062 -13.945312 14.910156 -13.945312 L 6.804688 -13.945312 L 6.804688 -20.746094 L 17.179688 -20.746094 C 17.683594 -20.746094 18.144531 -20.914062 18.5625 -21.335938 C 18.984375 -21.714844 19.195312 -22.175781 19.195312 -22.765625 C 19.195312 -23.308594 18.984375 -23.773438 18.5625 -24.191406 C 18.144531 -24.570312 17.683594 -24.78125 17.179688 -24.78125 L 4.535156 -24.78125 C 3.949219 -24.78125 3.484375 -24.570312 3.109375 -24.191406 C 2.6875 -23.773438 2.519531 -23.308594 2.519531 -22.765625 Z M 2.519531 -22.765625 "/></g></g></g><g fill="#ffffff" fill-opacity="1"><g transform="translate(198.15574, 188.999988)"><g><path d="M 10.667969 -24.78125 L 4.660156 -24.78125 C 4.074219 -24.78125 3.570312 -24.570312 3.148438 -24.148438 C 2.730469 -23.730469 2.519531 -23.226562 2.519531 -22.636719 L 2.519531 -2.140625 C 2.519531 -1.554688 2.730469 -1.050781 3.148438 -0.628906 C 3.570312 -0.210938 4.074219 0 4.660156 0 L 11.171875 0 C 12.136719 0 13.105469 -0.0859375 14.070312 -0.335938 C 15.035156 -0.546875 16.042969 -0.964844 17.09375 -1.554688 C 18.144531 -2.140625 19.066406 -2.898438 19.867188 -3.820312 C 20.621094 -4.746094 21.292969 -5.964844 21.796875 -7.519531 C 22.300781 -9.03125 22.554688 -10.792969 22.554688 -12.808594 C 22.554688 -14.910156 22.175781 -16.800781 21.460938 -18.4375 C 20.707031 -20.035156 19.738281 -21.292969 18.5625 -22.175781 C 17.386719 -23.058594 16.128906 -23.730469 14.785156 -24.148438 C 13.441406 -24.570312 12.097656 -24.78125 10.667969 -24.78125 Z M 10.625 -4.03125 L 6.761719 -4.03125 L 6.761719 -20.746094 L 10.753906 -20.746094 C 15.792969 -20.746094 18.3125 -18.058594 18.3125 -12.683594 C 18.3125 -6.886719 15.75 -4.03125 10.625 -4.03125 Z M 10.625 -4.03125 "/></g></g></g><g fill="#ffffff" fill-opacity="1"><g transform="translate(143.261743, 218.249986)"><g><path d="M 16.171875 -20.410156 C 16.757812 -20.410156 17.21875 -20.578125 17.640625 -21 C 18.058594 -21.378906 18.269531 -21.882812 18.269531 -22.46875 C 18.269531 -22.933594 18.101562 -23.351562 17.765625 -23.730469 C 17.429688 -24.066406 17.050781 -24.316406 16.632812 -24.484375 C 15.328125 -24.820312 13.523438 -24.988281 11.257812 -24.988281 C 9.828125 -24.988281 8.609375 -24.863281 7.558594 -24.695312 C 6.511719 -24.527344 5.503906 -24.191406 4.535156 -23.6875 C 3.527344 -23.183594 2.773438 -22.46875 2.269531 -21.460938 C 1.722656 -20.453125 1.46875 -19.195312 1.46875 -17.765625 C 1.46875 -16.378906 1.972656 -15.160156 2.980469 -14.152344 C 3.988281 -13.105469 5.207031 -12.304688 6.679688 -11.71875 C 8.105469 -11.128906 9.574219 -10.625 11.003906 -10.164062 C 12.433594 -9.660156 13.691406 -9.15625 14.699219 -8.609375 C 15.707031 -8.023438 16.210938 -7.390625 16.210938 -6.71875 C 16.210938 -4.789062 14.113281 -3.863281 9.953125 -3.863281 C 8.273438 -3.863281 6.550781 -4.15625 4.703125 -4.789062 C 4.453125 -4.828125 4.285156 -4.871094 4.199219 -4.871094 C 3.695312 -4.871094 3.277344 -4.660156 2.941406 -4.324219 C 2.605469 -3.949219 2.4375 -3.527344 2.4375 -3.023438 C 2.4375 -2.183594 2.773438 -1.636719 3.445312 -1.300781 C 5.710938 -0.253906 8.230469 0.253906 11.003906 0.253906 C 13.902344 0.253906 16.210938 -0.292969 17.933594 -1.46875 C 19.613281 -2.644531 20.496094 -4.410156 20.496094 -6.761719 C 20.496094 -8.148438 19.992188 -9.367188 18.984375 -10.414062 C 17.976562 -11.464844 16.714844 -12.304688 15.289062 -12.894531 C 13.816406 -13.480469 12.347656 -14.027344 10.921875 -14.53125 C 9.492188 -15.035156 8.273438 -15.539062 7.265625 -16.128906 C 6.257812 -16.714844 5.753906 -17.347656 5.753906 -18.058594 C 5.753906 -18.691406 5.921875 -19.195312 6.300781 -19.613281 C 6.636719 -20.035156 7.183594 -20.328125 7.855469 -20.496094 C 8.527344 -20.664062 9.15625 -20.746094 9.660156 -20.789062 C 10.164062 -20.832031 10.835938 -20.875 11.632812 -20.875 C 12.894531 -20.875 14.40625 -20.707031 16.171875 -20.410156 Z M 16.171875 -20.410156 "/></g></g></g><g fill="#ffffff" fill-opacity="1"><g transform="translate(167.831738, 218.249986)"><g><path d="M 6.59375 -2.140625 L 6.59375 -7.769531 L 13.945312 -7.769531 C 14.867188 -7.769531 15.792969 -7.894531 16.632812 -8.148438 C 17.472656 -8.398438 18.269531 -8.863281 19.066406 -9.492188 C 19.824219 -10.078125 20.453125 -11.003906 20.914062 -12.222656 C 21.378906 -13.398438 21.628906 -14.824219 21.628906 -16.507812 C 21.628906 -18.355469 21.210938 -19.90625 20.371094 -21.210938 C 19.53125 -22.511719 18.523438 -23.4375 17.386719 -23.980469 C 16.253906 -24.484375 15.078125 -24.78125 13.816406 -24.78125 L 4.453125 -24.78125 C 3.863281 -24.78125 3.359375 -24.570312 2.941406 -24.148438 C 2.519531 -23.730469 2.308594 -23.226562 2.308594 -22.636719 L 2.308594 -2.140625 C 2.308594 -1.554688 2.519531 -1.050781 2.941406 -0.628906 C 3.359375 -0.210938 3.863281 0 4.453125 0 C 5.039062 0 5.542969 -0.210938 5.964844 -0.628906 C 6.382812 -1.050781 6.59375 -1.554688 6.59375 -2.140625 Z M 6.59375 -20.746094 L 13.777344 -20.746094 C 14.785156 -20.746094 15.664062 -20.410156 16.339844 -19.78125 C 17.011719 -19.109375 17.386719 -18.019531 17.386719 -16.507812 C 17.386719 -13.355469 16.171875 -11.800781 13.777344 -11.800781 L 6.59375 -11.800781 Z M 6.59375 -20.746094 "/></g></g></g><g fill="#ffffff" fill-opacity="1"><g transform="translate(193.115729, 218.249986)"><g><path d="M 2.519531 -22.765625 L 2.519531 -2.015625 C 2.519531 -1.429688 2.6875 -0.964844 3.109375 -0.589844 C 3.484375 -0.167969 3.949219 0 4.535156 0 L 17.179688 0 C 17.683594 0 18.144531 -0.167969 18.5625 -0.589844 C 18.984375 -0.964844 19.195312 -1.429688 19.195312 -2.015625 C 19.195312 -2.5625 18.984375 -3.023438 18.5625 -3.445312 C 18.144531 -3.820312 17.683594 -4.03125 17.179688 -4.03125 L 6.804688 -4.03125 L 6.804688 -9.910156 L 14.910156 -9.910156 C 15.414062 -9.910156 15.875 -10.078125 16.296875 -10.5 C 16.714844 -10.878906 16.925781 -11.339844 16.925781 -11.929688 C 16.925781 -12.472656 16.714844 -12.9375 16.296875 -13.355469 C 15.875 -13.734375 15.414062 -13.945312 14.910156 -13.945312 L 6.804688 -13.945312 L 6.804688 -20.746094 L 17.179688 -20.746094 C 17.683594 -20.746094 18.144531 -20.914062 18.5625 -21.335938 C 18.984375 -21.714844 19.195312 -22.175781 19.195312 -22.765625 C 19.195312 -23.308594 18.984375 -23.773438 18.5625 -24.191406 C 18.144531 -24.570312 17.683594 -24.78125 17.179688 -24.78125 L 4.535156 -24.78125 C 3.949219 -24.78125 3.484375 -24.570312 3.109375 -24.191406 C 2.6875 -23.773438 2.519531 -23.308594 2.519531 -22.765625 Z M 2.519531 -22.765625 "/></g></g></g><g fill="#ffffff" fill-opacity="1"><g transform="translate(217.013725, 218.249986)"><g><path d="M 11.71875 -24.78125 C 10.960938 -24.78125 10.289062 -24.527344 9.703125 -24.109375 C 9.113281 -23.644531 8.695312 -23.101562 8.441406 -22.429688 L 1.175781 -2.898438 C 1.09375 -2.644531 1.050781 -2.351562 1.050781 -2.101562 C 1.050781 -1.511719 1.21875 -1.007812 1.636719 -0.589844 C 2.058594 -0.167969 2.5625 0 3.148438 0 C 4.074219 0 4.746094 -0.421875 5.125 -1.261719 L 6.761719 -5.628906 L 16.800781 -5.628906 L 18.4375 -1.261719 C 18.773438 -0.421875 19.445312 0 20.410156 0 C 21 0 21.460938 -0.167969 21.882812 -0.589844 C 22.300781 -1.007812 22.511719 -1.511719 22.511719 -2.101562 C 22.511719 -2.351562 22.46875 -2.644531 22.386719 -2.898438 L 15.121094 -22.429688 C 14.867188 -23.101562 14.40625 -23.6875 13.816406 -24.109375 C 13.1875 -24.527344 12.472656 -24.78125 11.71875 -24.78125 Z M 8.230469 -9.574219 L 11.761719 -19.109375 L 15.328125 -9.574219 Z M 8.230469 -9.574219 "/></g></g></g><g fill="#ffffff" fill-opacity="1"><g transform="translate(243.179724, 218.249986)"><g><path d="M 6.804688 -13.566406 L 6.804688 -22.636719 C 6.804688 -23.226562 6.59375 -23.730469 6.175781 -24.148438 C 5.753906 -24.570312 5.25 -24.78125 4.660156 -24.78125 C 4.074219 -24.78125 3.570312 -24.570312 3.148438 -24.148438 C 2.730469 -23.730469 2.519531 -23.226562 2.519531 -22.636719 L 2.519531 -2.140625 C 2.519531 -1.554688 2.730469 -1.050781 3.148438 -0.628906 C 3.570312 -0.210938 4.074219 0 4.660156 0 C 5.25 0 5.753906 -0.210938 6.175781 -0.628906 C 6.59375 -1.050781 6.804688 -1.554688 6.804688 -2.140625 L 6.804688 -11.800781 L 17.011719 -0.757812 C 17.429688 -0.253906 17.933594 0 18.605469 0 C 19.152344 0 19.613281 -0.167969 20.035156 -0.589844 C 20.410156 -1.007812 20.621094 -1.46875 20.621094 -2.058594 C 20.621094 -2.5625 20.453125 -2.980469 20.117188 -3.402344 L 11.800781 -12.601562 L 20.074219 -21.378906 C 20.410156 -21.757812 20.578125 -22.21875 20.578125 -22.722656 C 20.578125 -23.269531 20.371094 -23.730469 19.992188 -24.148438 C 19.570312 -24.570312 19.109375 -24.78125 18.5625 -24.78125 C 17.890625 -24.78125 17.386719 -24.527344 16.96875 -24.023438 C 15.960938 -22.933594 14.28125 -21.253906 11.929688 -18.898438 C 9.574219 -16.546875 7.855469 -14.742188 6.804688 -13.566406 Z M 6.804688 -13.566406 "/></g></g></g></svg>