<svg xmlns="http://www.w3.org/2000/svg" xmlns:xlink="http://www.w3.org/1999/xlink" width="500" zoomAndPan="magnify" viewBox="0 0 375 374.999991" height="500" preserveAspectRatio="xMidYMid meet" version="1.0"><defs><clipPath id="2d829f95d1"><path d="M 13.828125 0 L 361.078125 0 L 361.078125 374 L 13.828125 374 Z M 13.828125 0 " clip-rule="nonzero"/></clipPath></defs><g clip-path="url(#2d829f95d1)"><path fill="#ffffff" d="M 187.492188 0.167969 C 235.402344 0.167969 278.835938 19.652344 310.332031 50.929688 C 341.675781 82.503906 361.078125 125.875 361.078125 173.800781 C 361.078125 221.726562 341.601562 265.171875 310.332031 296.675781 C 278.761719 328.027344 235.402344 347.4375 187.492188 347.4375 C 175.996094 347.4375 164.726562 346.390625 153.90625 344.152344 C 144.726562 342.507812 135.921875 339.820312 127.117188 336.761719 L 69.128906 371.546875 C 63.605469 374.832031 56.441406 373.191406 53.15625 367.667969 C 51.515625 364.980469 51.144531 362.140625 51.738281 359.453125 L 61.144531 292.867188 C 46.8125 277.714844 35.171875 260.097656 27.1875 240.464844 C 18.53125 220.160156 13.828125 197.390625 13.828125 173.875 C 13.828125 125.953125 33.304688 82.503906 64.574219 50.929688 C 96.144531 19.652344 139.578125 0.167969 187.492188 0.167969 Z M 279.210938 81.460938 C 283.6875 86.164062 283.6875 93.554688 279.210938 98.03125 C 274.730469 102.511719 267.34375 102.511719 262.640625 98.03125 C 252.640625 88.03125 240.925781 80.191406 228.238281 74.890625 C 215.550781 69.742188 201.59375 66.902344 187.492188 66.902344 C 158.011719 66.902344 131.371094 78.773438 112.113281 98.03125 C 92.859375 117.292969 80.996094 143.941406 80.996094 173.429688 C 80.996094 202.691406 92.859375 229.339844 112.113281 248.601562 C 131.371094 267.859375 158.011719 279.730469 187.492188 279.730469 C 216.746094 279.730469 243.386719 267.859375 262.640625 248.601562 C 279.433594 232.027344 290.480469 209.707031 293.164062 185.074219 L 249.582031 185.074219 L 219.65625 238.300781 C 216.597656 244.046875 209.429688 246.0625 203.683594 242.777344 C 200.625 241.136719 198.757812 238.300781 197.9375 235.164062 L 180.921875 156.707031 L 173.3125 177.160156 C 171.667969 181.863281 167.191406 184.925781 162.488281 184.925781 L 114.800781 184.925781 C 108.234375 184.925781 102.933594 179.625 102.933594 173.277344 C 102.933594 166.710938 108.234375 161.410156 114.800781 161.410156 L 154.355469 161.410156 L 172.566406 111.394531 C 173.757812 107.511719 177.042969 104.453125 181.371094 103.632812 C 187.492188 102.214844 193.832031 106.320312 195.101562 112.441406 L 214.355469 199.929688 L 231.96875 168.351562 C 233.835938 164.246094 237.941406 161.410156 242.640625 161.410156 L 305.628906 161.410156 C 311.972656 161.410156 317.269531 166.710938 317.269531 173.277344 C 317.269531 209.109375 302.71875 241.507812 279.210938 265.023438 C 255.703125 288.539062 223.3125 303.09375 187.492188 303.09375 C 151.667969 303.09375 119.128906 288.539062 95.769531 265.023438 C 72.1875 241.433594 57.710938 209.109375 57.710938 173.277344 C 57.710938 137.449219 72.261719 104.898438 95.769531 81.3125 C 119.128906 57.945312 151.667969 43.390625 187.492188 43.390625 C 204.65625 43.390625 221.445312 46.675781 237.042969 53.242188 C 252.792969 59.960938 267.121094 69.367188 279.210938 81.460938 Z M 293.761719 67.574219 C 266.523438 40.328125 229.058594 23.53125 187.492188 23.53125 C 145.921875 23.53125 108.457031 40.328125 81.21875 67.574219 C 53.980469 94.824219 37.1875 132.296875 37.1875 173.875 C 37.1875 194.332031 41.292969 214.039062 48.679688 231.65625 C 56.292969 250.09375 67.488281 266.664062 81.441406 280.402344 C 84.128906 282.863281 85.769531 286.746094 85.097656 290.628906 L 78.160156 339 L 119.949219 313.769531 L 120.175781 313.769531 C 123.011719 311.902344 126.964844 311.53125 130.621094 313.171875 C 139.429688 316.679688 148.609375 319.515625 158.460938 321.382812 C 167.863281 323.25 177.488281 324.21875 187.566406 324.21875 C 229.132812 324.21875 266.597656 307.425781 293.835938 280.175781 C 321.078125 252.929688 337.867188 215.457031 337.867188 173.875 C 337.867188 132.296875 321.003906 94.824219 293.761719 67.574219 Z M 293.761719 67.574219 " fill-opacity="1" fill-rule="nonzero"/></g></svg>